<?xml version="1.0" standalone="no"?>
<!DOCTYPE svg PUBLIC "-//W3C//DTD SVG 20010904//EN"
 "http://www.w3.org/TR/2001/REC-SVG-20010904/DTD/svg10.dtd">
<svg version="1.0" xmlns="http://www.w3.org/2000/svg"
 width="510.000000pt" height="510.000000pt" viewBox="0 0 510.000000 510.000000"
 preserveAspectRatio="xMidYMid meet">
<metadata>
Created by potrace 1.11, written by Peter Selinger 2001-2013
</metadata>
<g transform="translate(0.000000,510.000000) scale(0.100000,-0.100000)"
fill="#000000" stroke="none">
<path d="M1360 2749 c-121 -20 -251 -109 -310 -212 l-27 -48 -6 53 c-4 29 -7
83 -7 121 l0 67 -200 0 -200 0 0 -655 0 -655 219 0 220 0 3 398 c4 431 6 443
64 519 66 87 213 105 287 35 53 -51 57 -86 57 -539 l0 -413 219 0 219 0 5 398
c2 266 8 409 15 433 59 180 287 227 370 75 15 -27 18 -80 22 -466 l5 -435 220
0 220 0 0 475 c0 508 -2 534 -51 632 -70 140 -209 220 -384 221 -179 2 -324
-66 -409 -193 l-39 -60 -30 53 c-57 102 -171 176 -302 196 -75 12 -103 12
-180 0z"/>
<path d="M3069 1856 c-89 -32 -137 -96 -146 -195 -7 -81 11 -138 61 -187 94
-95 286 -98 386 -8 54 49 74 106 68 195 -7 91 -40 142 -117 182 -47 23 -67 27
-135 27 -45 -1 -97 -7 -117 -14z"/>
</g>
</svg>
